<?xml version="1.0" encoding="UTF-8" standalone="no"?>
<!-- Created with Inkscape (http://www.inkscape.org/) -->

<svg
   width="11in"
   height="8.5in"
   viewBox="0 0 792 612"
   version="1.1"
   id="svg5"
   inkscape:version="1.2.2 (1:1.2.2+202212051550+b0a8486541)"
   sodipodi:docname="diffract2.svg"
   inkscape:export-filename="diffract2p.svg"
   inkscape:export-xdpi="300"
   inkscape:export-ydpi="300"
   xmlns:inkscape="http://www.inkscape.org/namespaces/inkscape"
   xmlns:sodipodi="http://sodipodi.sourceforge.net/DTD/sodipodi-0.dtd"
   xmlns="http://www.w3.org/2000/svg"
   xmlns:svg="http://www.w3.org/2000/svg">
  <sodipodi:namedview
     id="namedview7"
     pagecolor="#ffffff"
     bordercolor="#666666"
     borderopacity="1.0"
     inkscape:showpageshadow="2"
     inkscape:pageopacity="0.0"
     inkscape:pagecheckerboard="0"
     inkscape:deskcolor="#d1d1d1"
     inkscape:document-units="pt"
     showgrid="true"
     inkscape:zoom="0.8532197"
     inkscape:cx="508.07547"
     inkscape:cy="410.79689"
     inkscape:window-width="1512"
     inkscape:window-height="1017"
     inkscape:window-x="163"
     inkscape:window-y="32"
     inkscape:window-maximized="0"
     inkscape:current-layer="layer1">
    <inkscape:grid
       type="xygrid"
       id="grid291"
       units="pt"
       spacingx="1"
       spacingy="1" />
  </sodipodi:namedview>
  <defs
     id="defs2">
    <rect
       x="759.20953"
       y="133.2132"
       width="629.27672"
       height="596.70952"
       id="rect1883" />
  </defs>
  <g
     inkscape:label="Layer 1"
     inkscape:groupmode="layer"
     id="layer1">
    <text
       xml:space="preserve"
       transform="scale(0.75)"
       id="text1881"
       style="font-weight:bold;font-size:32px;line-height:1.25;font-family:sans-serif;-inkscape-font-specification:'sans-serif Bold';letter-spacing:0px;word-spacing:0px;white-space:pre;shape-inside:url(#rect1883);display:inline" />
    <path
       style="fill:#ffffff;fill-opacity:1;stroke:#000000;stroke-width:2;stroke-linecap:round;stroke-linejoin:round"
       d="m -14.662998,40.001116 c 3.668,8.301396 7.336,16.300396 11.004,19.057396 3.668,2.758 7.336,0.055 11.0039997,-6.418 3.6680003,-6.472 7.3360003,-16.263796 11.0040003,-23.313996 3.668,-7.0501 7.336,-10.8412 11.004,-9.045 3.668,1.7961 7.336,9.0739 11.004,17.3153 3.668,8.241696 7.336,16.859696 11.004,20.529696 3.669,3.669 7.337,2.107 11.005,-3.7 3.668,-5.807 7.336,-15.461296 11.004,-22.982896 3.668,-7.5216 7.336,-12.3625 11.004,-11.5437 3.668,0.8189 7.336,7.2621 11.004,15.3268 3.668,8.064796 7.335998,17.178796 11.003998,21.708796 3.668,4.53 7.3362,4.132 11.0043,-0.928 3.668,-5.061 7.3361,-14.439096 11.0041,-22.325196 3.6681,-7.8861 7.3361,-13.708 11.0042,-13.8781 3.668,-0.1702 7.336,5.347 11.0041,13.1203 3.668,7.7732 7.3361,17.253996 11.0041,22.579996 3.6681,5.326 7.3361,6.097 11.0042,1.856 3.668,-4.241 7.3361,-13.211 11.0041,-21.349696 3.668,-8.1385 7.3361,-14.8585 11.0041,-16.0153 3.6681,-1.1567 7.3361,3.356 11.00416,10.7274 3.66805,7.3713 7.3361,17.084596 11.00414,23.129596 3.66804,6.046 7.3361,7.975 11.0041,4.614 3.6681,-3.362 7.3361,-11.795 11.0042,-20.070396 3.668,-8.2752 7.3361,-15.798 11.0041,-17.9248 3.668,-2.1268 7.3361,1.3172 11.0041,8.1818 3.6681,6.8647 7.3361,16.671396 11.0042,23.351396 3.668,6.68 7.3361,9.74 11.0041,7.306 3.668,-2.435 7.3361,-10.212 11.0041,-18.506296 3.6681,-8.2943 7.3361,-16.5128 11.0042,-19.5795 3.668,-3.0667 7.3361,-0.7403 11.0044,5.52 3.668,6.2604 7.336,16.021796 11.004,23.240796 3.668,7.219 7.336,11.366 11.004,9.894 3.668,-1.473 7.336,-8.483 11.004,-16.6787 3.668,-8.195396 7.336,-16.992796 11.004,-20.955796 3.668,-3.963 7.336,-2.7873 11.004,2.7798 3.668,5.567 7.336,15.1442 11.005,22.799696 3.668,7.655 7.336,12.831 11.004,12.342 3.668,-0.49 7.336,-6.634 11.004,-14.614 3.668,-7.980596 7.336,-17.231796 11.004,-22.034796 3.668,-4.8029 7.336,-4.7946 11.004,0 3.668,4.7946 7.336,14.0514 11.004,22.034796 3.668,7.982 7.336,14.114 11.004,14.614 3.668,0.499 7.336,-4.691 11.004,-12.342 3.668,-7.651496 7.337,-17.225096 11.005,-22.799696 3.668,-5.5746 7.336,-6.7338 11.004,-2.7798 3.668,3.954 7.336,12.7588 11.004,20.955796 3.668,8.1967 7.336,15.1957 11.004,16.6787 3.668,1.482 7.336,-2.68 11.004,-9.894 3.668,-7.2139 7.336,-16.973696 11.004,-23.240796 3.668,-6.267 7.336,-8.5772 11.004,-5.52 3.668,3.0572 7.336,11.2848 11.005,19.5795 3.668,8.294296 7.336,16.061296 11.004,18.506296 3.668,2.444 7.336,-0.632 11.004,-7.306 3.668,-6.674 7.336,-16.480996 11.004,-23.351396 3.668,-6.8703 7.336,-10.2987 11.004,-8.1818 3.668,2.1169 7.336,9.6504 11.004,17.9248 3.668,8.274396 7.336,16.699396 11.004,20.070396 3.668,3.371 7.336,1.425 11.004,-4.614 3.669,-6.038 7.337,-15.753596 11.005,-23.129596 3.668,-7.3761 7.336,-11.8739 11.004,-10.7274 3.668,1.1466 7.336,7.8789 11.004,16.0153 3.668,8.136696 7.336,17.099696 11.004,21.349696 3.668,4.249 7.336,3.462 11.004,-1.856 3.668,-5.318 7.336,-14.803196 11.004,-22.579996 3.668,-7.7769 7.336,-13.2802 11.004,-13.1203 3.668,0.1599 7.336,5.9952 11.005,13.8781 3.668,7.8829 7.336,17.256196 11.004,22.325196 3.668,5.068 7.336,5.45 11.004,0.928 3.668,-4.521 7.336,-13.642 11.004,-21.708796 3.668,-8.0671 7.336,-14.4978 11.004,-15.3268 3.668,-0.829 7.336,4.0264 11.004,11.5437 3.668,7.5173 7.336,17.167896 11.004,22.982896 3.668,5.815 7.336,7.36 11.004,3.7 3.669,-3.661 7.337,-12.287 11.005,-20.529696 3.668,-8.2427 7.336,-15.5092 11.004,-17.3153 3.668,-1.8062 7.336,2.0003 11.004,9.045 3.668,7.0448 7.336,16.835996 11.004,23.313996 3.668,6.479 7.336,9.166 11.004,6.418 3.668,-2.748 7.336,-10.756 11.004,-19.057396"
       title="t cos(t)"
       id="path7150" />
    <path
       style="fill:#ffffff;stroke:#000000;stroke-width:2;stroke-linecap:round;stroke-linejoin:round"
       d="m 0,500 c 2.5316511,-1.165 5.0632928,-2.342 7.5949438,-2.979 2.5316512,-0.638 5.0632562,-0.706 7.5949532,-0.15 2.531604,0.557 5.063302,1.726 7.594907,2.984 2.531698,1.257 5.063302,2.56 7.594907,3.297 2.531697,0.736 5.063302,0.874 7.595,0.319 2.531604,-0.554 5.063301,-1.789 7.594906,-3.154 2.531697,-1.366 5.063299,-2.815 7.594904,-3.668 2.531698,-0.853 5.063303,-1.073 7.595,-0.522 2.531605,0.55 5.063302,1.86 7.594908,3.352 2.531604,1.492 5.063301,3.113 7.594906,4.106 2.531696,0.992 5.063303,1.312 7.595001,0.768 2.531605,-0.544 5.063302,-1.942 7.594907,-3.584 2.531512,-1.642 5.062839,-3.472 7.595093,-4.634 2.531324,-1.163 5.063574,-1.606 7.594904,-1.073 2.53133,0.533 5.06358,2.036 7.59491,3.862 2.53133,1.826 5.06358,3.913 7.5949,5.287 2.53133,1.374 5.06359,1.975 7.59491,1.459 2.53132,-0.516 5.06359,-2.147 7.59491,-4.203 2.53133,-2.056 5.06358,-4.469 7.59491,-6.116 2.53132,-1.648 5.06357,-2.457 7.5949,-1.968 2.53132,0.488 5.06358,2.28 7.59491,4.634 2.53131,2.355 5.06357,5.199 7.5949,7.213 2.53132,2.014 5.06358,3.11 7.5949,2.666 2.53226,-0.444 5.06359,-2.442 7.59491,-5.203 2.53225,-2.76 5.06358,-6.2 7.5949,-8.734 2.53226,-2.533 5.06359,-4.052 7.5949,-3.688 2.53227,0.365 5.0636,2.642 7.59493,5.988 2.53224,3.347 5.06357,7.671 7.5949,11.003 2.53225,3.332 5.06357,5.532 7.5949,5.327 2.53227,-0.206 5.06358,-2.876 7.59491,-7.148 2.53226,-4.272 5.06358,-10.052 7.5949,-14.771 2.53226,-4.72 5.06359,-8.197 7.59492,-8.378 2.53225,-0.182 5.06358,3.047 7.5949,9.009 2.53225,5.962 5.06358,14.585 7.59584,22.331 2.53132,7.747 5.06264,14.387 7.59491,15.975 2.53132,1.589 5.06265,-2.091 7.5949,-12.092 2.53132,-10.001 5.06265,-26.346 7.5949,-45.727 2.53133,-19.38 5.06266,-41.588 7.59492,-60.751 2.53132,-19.163 5.06264,-34.987 7.5949,-42.973 2.53133,-7.987 5.06265,-7.972 7.5949,0 2.53133,7.971 5.06267,23.816 7.59491,42.973 2.53133,19.157 5.06266,41.366 7.59491,60.751 2.53132,19.386 5.06265,35.715 7.59491,45.727 2.53132,10.013 5.06265,13.671 7.59491,12.092 2.53132,-1.578 5.06357,-8.23 7.5949,-15.975 2.53133,-7.744 5.06357,-16.364 7.5949,-22.331 2.53134,-5.967 5.06359,-9.184 7.59491,-9.009 2.53133,0.175 5.06359,3.66 7.59491,8.378 2.53133,4.717 5.06358,10.496 7.59491,14.771 2.53133,4.275 5.06358,6.937 7.5949,7.148 2.53133,0.21 5.06358,-1.997 7.59491,-5.327 2.53132,-3.33 5.06358,-7.655 7.59492,-11.003 2.53131,-3.348 5.06357,-5.62 7.5949,-5.988 2.53132,-0.368 5.06357,1.157 7.5949,3.688 2.53225,2.532 5.06358,5.973 7.59491,8.734 2.53226,2.762 5.06357,4.757 7.5949,5.203 2.53226,0.447 5.06359,-0.654 7.59491,-2.666 2.53225,-2.012 5.06359,-4.857 7.59491,-7.213 2.53225,-2.355 5.06358,-4.143 7.5949,-4.634 2.53225,-0.491 5.06358,0.322 7.59491,1.968 2.53226,1.645 5.06359,4.06 7.59491,6.116 2.53226,2.057 5.06358,3.685 7.59491,4.203 2.53225,0.518 5.06357,-0.087 7.5949,-1.459 2.53226,-1.373 5.06358,-3.461 7.59491,-5.287 2.53226,-1.826 5.06358,-3.327 7.59583,-3.862 2.53133,-0.535 5.06266,-0.088 7.59491,1.073 2.53133,1.16 5.06266,2.991 7.59491,4.634 2.53132,1.642 5.06265,3.039 7.5949,3.584 2.53132,0.545 5.06265,0.223 7.59492,-0.768 2.53132,-0.991 5.06264,-2.614 7.5949,-4.106 2.53133,-1.492 5.06265,-2.8 7.5949,-3.352 2.53133,-0.552 5.06265,-0.33 7.59491,0.522 2.53133,0.852 5.06265,2.302 7.59491,3.668 2.53132,1.365 5.06265,2.598 7.5949,3.154 2.53133,0.556 5.06359,0.416 7.59492,-0.319 2.53132,-0.736 5.06357,-2.039 7.5949,-3.297 2.53132,-1.258 5.06357,-2.426 7.5949,-2.984 2.53132,-0.557 5.06359,-0.486 7.59492,0.15 2.53131,0.636 5.06357,1.814 7.5949,2.979"
       title="t sin(t)/t"
       id="path306" />
    <path
       style="fill:none;stroke:#000000;stroke-width:2;stroke-linecap:butt;stroke-linejoin:miter;stroke-opacity:1;stroke-dasharray:none"
       d="M 0,200 H 270 V 99.999997 h 60 V 200 h 270"
       id="path347"
       sodipodi:nodetypes="cccccc" />
  </g>
</svg>
